STARTFONT 2.1
COMMENT $XConsortium: luBIS12.bdf,v 1.7 94/04/02 16:22:47 gildea Exp $
COMMENT  (c) Copyright Bigelow & Holmes 1986, 1985. Lucida is a registered
COMMENT  trademark of Bigelow & Holmes. See LEGAL NOTICE file for terms 
COMMENT  of the license. 
COMMENT  
COMMENT  Translation to ISO8859-2 by Cub Soft;  Petr.Kolar@vslib.cz
COMMENT  
FONT -B&H-Lucida-Bold-I-Normal-Sans-17-120-100-100-P-108-ISO8859-2
SIZE 12 100 100
FONTBOUNDINGBOX 35 18 -12 -3
STARTPROPERTIES 20
COMMENT Begin LogicalFontDescription
FONTNAME_REGISTRY ""
FOUNDRY "B&H"
FAMILY_NAME "Lucida"
WEIGHT_NAME "Bold"
SLANT "I"
SETWIDTH_NAME "Normal"
ADD_STYLE_NAME "Sans"
PIXEL_SIZE 17
POINT_SIZE 120
RESOLUTION_X 100
RESOLUTION_Y 100
SPACING "P"
AVERAGE_WIDTH 108
CHARSET_REGISTRY "ISO8859"
CHARSET_ENCODING "2"
COMMENT END LogicalFontDescription
FONT_ASCENT 15
FONT_DESCENT 4
DEFAULT_CHAR 0
COPYRIGHT "Copyright Bigelow & Holmes 1986, 1985., Copyright 1996 Cub Soft"
FACE_NAME "Lucida Sans Bold Italic"
ENDPROPERTIES
CHARS 191
STARTCHAR space
ENCODING 32
SWIDTH 343 0
DWIDTH 6 0
BBX 1 1 0 0
BITMAP
00
ENDCHAR
STARTCHAR exclam
ENCODING 33
SWIDTH 343 0
DWIDTH 6 0
BBX 6 12 1 0
BITMAP
3c
3c
38
38
38
38
30
70
00
00
f0
f0
ENDCHAR
STARTCHAR quotedbl
ENCODING 34
SWIDTH 530 0
DWIDTH 9 0
BBX 8 6 3 6
BITMAP
e7
e7
e7
e7
66
66
ENDCHAR
STARTCHAR numbersign
ENCODING 35
SWIDTH 687 0
DWIDTH 12 0
BBX 11 12 2 0
BITMAP
0760
06e0
0ec0
7fe0
7fe0
1b80
3b00
ffc0
ffc0
6e00
ec00
dc00
ENDCHAR
STARTCHAR dollar
ENCODING 36
SWIDTH 687 0
DWIDTH 12 0
BBX 10 17 2 -2
BITMAP
0300
0300
0e00
1fc0
3fc0
3a40
3e00
1e00
1e00
0f00
0f80
0b80
8b80
ff00
fe00
1800
1800
ENDCHAR
STARTCHAR percent
ENCODING 37
SWIDTH 908 0
DWIDTH 15 0
BBX 14 12 2 0
BITMAP
3c1c
7c38
ee70
cce0
fdc0
7b80
0778
0efc
1ccc
39dc
70f8
e0f0
ENDCHAR
STARTCHAR ampersand
ENCODING 38
SWIDTH 816 0
DWIDTH 14 0
BBX 13 12 1 0
BITMAP
07c0
0fe0
1ee0
1ec0
0f80
1f18
7738
e7b0
e3e0
f1c0
ffc0
3ef0
ENDCHAR
STARTCHAR apostrophe
ENCODING 39
SWIDTH 265 0
DWIDTH 4 0
BBX 4 5 2 7
BITMAP
70
70
e0
60
c0
ENDCHAR
STARTCHAR parenleft
ENCODING 40
SWIDTH 386 0
DWIDTH 7 0
BBX 7 15 1 -3
BITMAP
02
0c
1c
38
70
70
f0
e0
e0
e0
e0
e0
70
30
10
ENDCHAR
STARTCHAR parenright
ENCODING 41
SWIDTH 386 0
DWIDTH 7 0
BBX 7 15 0 -3
BITMAP
10
18
1c
1c
0e
0e
1e
1e
1c
1c
38
38
70
e0
80
ENDCHAR
STARTCHAR asterisk
ENCODING 42
SWIDTH 464 0
DWIDTH 8 0
BBX 7 6 2 6
BITMAP
1c
5a
ee
28
ec
48
ENDCHAR
STARTCHAR plus
ENCODING 43
SWIDTH 687 0
DWIDTH 12 0
BBX 10 10 2 0
BITMAP
0600
0600
0400
0c00
ffc0
ffc0
0c00
0800
1800
1800
ENDCHAR
STARTCHAR comma
ENCODING 44
SWIDTH 343 0
DWIDTH 6 0
BBX 4 6 1 -3
BITMAP
70
70
f0
20
60
c0
ENDCHAR
STARTCHAR minus
ENCODING 45
SWIDTH 687 0
DWIDTH 12 0
BBX 10 2 2 4
BITMAP
ffc0
ffc0
ENDCHAR
STARTCHAR period
ENCODING 46
SWIDTH 343 0
DWIDTH 6 0
BBX 4 3 1 0
BITMAP
70
f0
e0
ENDCHAR
STARTCHAR slash
ENCODING 47
SWIDTH 596 0
DWIDTH 10 0
BBX 13 15 0 -3
BITMAP
0038
0070
0060
00e0
01c0
0180
0300
0700
0600
0c00
1c00
3800
3000
7000
e000
ENDCHAR
STARTCHAR zero
ENCODING 48
SWIDTH 687 0
DWIDTH 12 0
BBX 11 12 2 0
BITMAP
0f80
1fc0
39e0
70e0
71e0
f1e0
f1e0
e1c0
e3c0
f380
7f00
3c00
ENDCHAR
STARTCHAR one
ENCODING 49
SWIDTH 687 0
DWIDTH 12 0
BBX 6 12 4 0
BITMAP
7c
fc
38
38
38
78
78
70
70
70
f0
e0
ENDCHAR
STARTCHAR two
ENCODING 50
SWIDTH 687 0
DWIDTH 12 0
BBX 11 12 1 0
BITMAP
1f80
3fe0
21e0
00e0
01e0
03c0
0f00
1e00
3800
7000
ffc0
ff80
ENDCHAR
STARTCHAR three
ENCODING 51
SWIDTH 687 0
DWIDTH 12 0
BBX 10 12 2 0
BITMAP
1f80
3fc0
23c0
01c0
0380
3e00
3f00
0780
0380
8780
ff00
fe00
ENDCHAR
STARTCHAR four
ENCODING 52
SWIDTH 687 0
DWIDTH 12 0
BBX 10 12 1 0
BITMAP
01c0
03c0
0780
0d80
1b80
3b80
7380
ffc0
ffc0
0700
0700
0700
ENDCHAR
STARTCHAR five
ENCODING 53
SWIDTH 687 0
DWIDTH 12 0
BBX 11 12 2 0
BITMAP
1fe0
3fe0
3000
3000
3e00
7f00
0780
03c0
03c0
8780
ff80
fe00
ENDCHAR
STARTCHAR six
ENCODING 54
SWIDTH 687 0
DWIDTH 12 0
BBX 11 12 2 0
BITMAP
07e0
1fe0
3c20
7800
7780
ffc0
f3c0
e1c0
e1c0
f380
7f80
3e00
ENDCHAR
STARTCHAR seven
ENCODING 55
SWIDTH 687 0
DWIDTH 12 0
BBX 10 12 3 0
BITMAP
7fc0
ffc0
0380
0700
0e00
0e00
1c00
3800
7000
7000
f000
e000
ENDCHAR
STARTCHAR eight
ENCODING 56
SWIDTH 687 0
DWIDTH 12 0
BBX 10 12 2 0
BITMAP
0f80
1fc0
39c0
39c0
3f80
1f00
7f80
e380
e180
e380
ff00
3e00
ENDCHAR
STARTCHAR nine
ENCODING 57
SWIDTH 687 0
DWIDTH 12 0
BBX 11 12 2 0
BITMAP
0f80
3fc0
39e0
70e0
70e0
79e0
7fe0
3dc0
03c0
8780
ff00
fc00
ENDCHAR
STARTCHAR colon
ENCODING 58
SWIDTH 343 0
DWIDTH 6 0
BBX 5 9 1 0
BITMAP
38
78
70
00
00
00
70
f0
e0
ENDCHAR
STARTCHAR semicolon
ENCODING 59
SWIDTH 343 0
DWIDTH 6 0
BBX 6 12 1 -3
BITMAP
3c
3c
38
00
00
00
78
70
70
30
70
e0
ENDCHAR
STARTCHAR less
ENCODING 60
SWIDTH 687 0
DWIDTH 12 0
BBX 11 10 2 0
BITMAP
0020
00e0
03c0
1f00
fc00
7800
1c00
0700
0380
0080
ENDCHAR
STARTCHAR equal
ENCODING 61
SWIDTH 687 0
DWIDTH 12 0
BBX 11 6 1 2
BITMAP
7fe0
7fe0
0000
0000
ffc0
ffc0
ENDCHAR
STARTCHAR greater
ENCODING 62
SWIDTH 687 0
DWIDTH 12 0
BBX 11 10 1 0
BITMAP
2000
3800
1c00
0700
03c0
07e0
1f00
7800
e000
8000
ENDCHAR
STARTCHAR question
ENCODING 63
SWIDTH 539 0
DWIDTH 9 0
BBX 8 12 2 0
BITMAP
fe
ff
8f
0f
0e
1c
38
70
70
00
f0
e0
ENDCHAR
STARTCHAR at
ENCODING 64
SWIDTH 833 0
DWIDTH 14 0
BBX 14 12 1 0
BITMAP
07e0
1c18
3008
63e4
4444
c8c4
88c4
99cc
9ed8
4cf0
2080
1f00
ENDCHAR
STARTCHAR A
ENCODING 65
SWIDTH 771 0
DWIDTH 13 0
BBX 12 12 1 0
BITMAP
03c0
03c0
07c0
07c0
0de0
0ce0
18e0
3fe0
3fe0
70f0
6070
e070
ENDCHAR
STARTCHAR B
ENCODING 66
SWIDTH 660 0
DWIDTH 11 0
BBX 10 12 2 0
BITMAP
3f80
3fc0
39c0
39c0
7380
7e00
7f00
7380
7380
e380
ff80
fe00
ENDCHAR
STARTCHAR C
ENCODING 67
SWIDTH 737 0
DWIDTH 13 0
BBX 12 12 2 0
BITMAP
07f0
1ff0
3c10
7800
7000
f000
f000
f000
f000
f840
7fc0
3f80
ENDCHAR
STARTCHAR D
ENCODING 68
SWIDTH 822 0
DWIDTH 14 0
BBX 13 12 2 0
BITMAP
3fe0
3ff0
3878
3878
7878
7078
7078
7070
70f0
f1e0
ffc0
ff00
ENDCHAR
STARTCHAR E
ENCODING 69
SWIDTH 642 0
DWIDTH 11 0
BBX 11 12 1 0
BITMAP
3fe0
3fe0
3800
3800
3800
7f80
7f80
7000
7000
7000
ff80
ff80
ENDCHAR
STARTCHAR F
ENCODING 70
SWIDTH 614 0
DWIDTH 10 0
BBX 11 12 1 0
BITMAP
3fe0
3fe0
3800
3800
3800
7f80
7f80
7000
7000
7000
f000
e000
ENDCHAR
STARTCHAR G
ENCODING 71
SWIDTH 755 0
DWIDTH 13 0
BBX 12 12 2 0
BITMAP
07f0
1ff0
3c10
7800
7000
f000
f0e0
f0e0
f1c0
f9c0
7fc0
3f80
ENDCHAR
STARTCHAR H
ENCODING 72
SWIDTH 813 0
DWIDTH 14 0
BBX 13 12 2 0
BITMAP
3c38
3838
3878
3870
7870
7ff0
7ff0
70f0
70e0
f0e0
e0e0
e1e0
ENDCHAR
STARTCHAR I
ENCODING 73
SWIDTH 361 0
DWIDTH 6 0
BBX 6 12 1 0
BITMAP
3c
3c
38
38
38
78
78
70
70
70
f0
f0
ENDCHAR
STARTCHAR J
ENCODING 74
SWIDTH 502 0
DWIDTH 9 0
BBX 10 15 0 -3
BITMAP
01c0
03c0
0380
0380
0380
0380
0780
0700
0700
0700
0700
0f00
0e00
fe00
f800
ENDCHAR
STARTCHAR K
ENCODING 75
SWIDTH 753 0
DWIDTH 13 0
BBX 12 12 1 0
BITMAP
3c70
3ce0
39c0
3b80
3b00
7f00
7f00
7780
73c0
73c0
f1e0
e0f0
ENDCHAR
STARTCHAR L
ENCODING 76
SWIDTH 623 0
DWIDTH 11 0
BBX 9 12 2 0
BITMAP
3c00
3800
3800
3800
7800
7000
7000
7000
7000
f000
ff80
ff80
ENDCHAR
STARTCHAR M
ENCODING 77
SWIDTH 940 0
DWIDTH 16 0
BBX 16 12 1 0
BITMAP
3e0f
3e1f
3e1e
3e3e
3e3e
766e
77ee
67dc
679c
679c
e71c
e03c
ENDCHAR
STARTCHAR N
ENCODING 78
SWIDTH 789 0
DWIDTH 13 0
BBX 13 12 1 0
BITMAP
3838
3c38
3c30
3e30
3e30
7770
7770
63e0
63e0
61e0
e1e0
e0e0
ENDCHAR
STARTCHAR O
ENCODING 79
SWIDTH 855 0
DWIDTH 15 0
BBX 14 12 2 0
BITMAP
07e0
1ff8
3c78
783c
703c
f03c
f038
f078
f070
f0e0
7fc0
1f00
ENDCHAR
STARTCHAR P
ENCODING 80
SWIDTH 645 0
DWIDTH 11 0
BBX 11 12 1 0
BITMAP
3fc0
3fe0
38e0
38e0
39c0
7f80
7f00
7000
7000
7000
e000
e000
ENDCHAR
STARTCHAR Q
ENCODING 81
SWIDTH 855 0
DWIDTH 15 0
BBX 14 15 2 -3
BITMAP
07e0
1ff8
3c78
783c
703c
f03c
f038
f078
f070
f0e0
7fc0
1f80
01f0
00fc
0030
ENDCHAR
STARTCHAR R
ENCODING 82
SWIDTH 708 0
DWIDTH 12 0
BBX 11 12 1 0
BITMAP
3fc0
3fe0
38e0
38e0
39c0
7f80
7f00
7700
7380
7380
e3c0
e1c0
ENDCHAR
STARTCHAR S
ENCODING 83
SWIDTH 639 0
DWIDTH 11 0
BBX 10 12 1 0
BITMAP
0fc0
3fc0
3840
3800
3c00
3e00
0f80
0780
0380
c780
ff00
fc00
ENDCHAR
STARTCHAR T
ENCODING 84
SWIDTH 747 0
DWIDTH 13 0
BBX 13 12 2 0
BITMAP
fff8
fff8
0700
0f00
0e00
0e00
0e00
1e00
1e00
1c00
1c00
1c00
ENDCHAR
STARTCHAR U
ENCODING 85
SWIDTH 759 0
DWIDTH 13 0
BBX 12 12 2 0
BITMAP
3870
7870
7070
70e0
70e0
f0e0
f0e0
e0c0
e1c0
f1c0
7f80
3f00
ENDCHAR
STARTCHAR V
ENCODING 86
SWIDTH 765 0
DWIDTH 13 0
BBX 12 12 3 0
BITMAP
e070
f060
f0e0
70c0
7180
7180
7300
7b00
7e00
3e00
3c00
3c00
ENDCHAR
STARTCHAR W
ENCODING 87
SWIDTH 991 0
DWIDTH 17 0
BBX 16 12 3 0
BITMAP
e1c7
e3c6
e3ce
e7cc
e7dc
e7d8
edf8
edf0
f9f0
f9e0
f1e0
71c0
ENDCHAR
STARTCHAR X
ENCODING 88
SWIDTH 696 0
DWIDTH 12 0
BBX 13 12 0 0
BITMAP
1c38
1e70
0ee0
0fc0
0f80
0700
0780
0f80
1f80
3bc0
71c0
e1e0
ENDCHAR
STARTCHAR Y
ENCODING 89
SWIDTH 681 0
DWIDTH 12 0
BBX 11 12 3 0
BITMAP
e0e0
71c0
7380
7b00
3e00
3e00
3c00
3c00
3800
3800
3800
7800
ENDCHAR
STARTCHAR Z
ENCODING 90
SWIDTH 687 0
DWIDTH 12 0
BBX 12 12 1 0
BITMAP
1ff0
3ff0
01e0
03c0
0780
0f80
0f00
1e00
3c00
7800
ffc0
ffc0
ENDCHAR
STARTCHAR bracketleft
ENCODING 91
SWIDTH 386 0
DWIDTH 7 0
BBX 7 15 1 -3
BITMAP
1e
1e
38
38
38
30
30
70
70
70
60
60
e0
f0
f0
ENDCHAR
STARTCHAR backslash
ENCODING 92
SWIDTH 566 0
DWIDTH 10 0
BBX 6 15 3 -3
BITMAP
c0
e0
60
60
60
70
30
30
30
38
18
18
18
1c
0c
ENDCHAR
STARTCHAR bracketright
ENCODING 93
SWIDTH 386 0
DWIDTH 7 0
BBX 7 15 1 -3
BITMAP
1e
1e
0e
0c
0c
1c
1c
1c
18
18
38
38
38
f0
f0
ENDCHAR
STARTCHAR asciicircum
ENCODING 94
SWIDTH 687 0
DWIDTH 12 0
BBX 10 10 1 2
BITMAP
0200
0200
0700
0700
0f00
1980
3980
3180
60c0
e0c0
ENDCHAR
STARTCHAR underscore
ENCODING 95
SWIDTH 500 0
DWIDTH 9 0
BBX 8 2 0 -2
BITMAP
ff
ff
ENDCHAR
STARTCHAR grave
ENCODING 96
SWIDTH 663 0
DWIDTH 11 0
BBX 4 2 6 10
BITMAP
e0
30
ENDCHAR
STARTCHAR a
ENCODING 97
SWIDTH 681 0
DWIDTH 12 0
BBX 11 9 1 0
BITMAP
0fe0
1fe0
39c0
71c0
73c0
e7c0
efc0
fb80
7380
ENDCHAR
STARTCHAR b
ENCODING 98
SWIDTH 681 0
DWIDTH 12 0
BBX 11 12 1 0
BITMAP
1c00
3c00
3c00
39c0
3be0
7fe0
74e0
79c0
71c0
7380
ff00
fe00
ENDCHAR
STARTCHAR c
ENCODING 99
SWIDTH 548 0
DWIDTH 9 0
BBX 9 9 1 0
BITMAP
0f80
3f80
7880
7000
f000
f000
f100
ff00
7e00
ENDCHAR
STARTCHAR d
ENCODING 100
SWIDTH 681 0
DWIDTH 12 0
BBX 12 12 1 0
BITMAP
00f0
00f0
00e0
0fe0
1fe0
39e0
71e0
73c0
e7c0
edc0
fbc0
7380
ENDCHAR
STARTCHAR e
ENCODING 101
SWIDTH 612 0
DWIDTH 10 0
BBX 9 9 1 0
BITMAP
0f00
3f80
7380
7780
ff00
fc00
e080
ff80
3e00
ENDCHAR
STARTCHAR f
ENCODING 102
SWIDTH 464 0
DWIDTH 8 0
BBX 10 15 1 -3
BITMAP
07c0
1fc0
1c40
7f00
7f00
3800
3800
3800
7800
7000
7000
7000
7000
f000
e000
ENDCHAR
STARTCHAR g
ENCODING 103
SWIDTH 674 0
DWIDTH 11 0
BBX 11 12 1 -3
BITMAP
07e0
1fe0
39e0
71c0
73c0
77c0
7dc0
7bc0
7380
8380
ff00
fe00
ENDCHAR
STARTCHAR h
ENCODING 104
SWIDTH 675 0
DWIDTH 11 0
BBX 10 12 1 0
BITMAP
3c00
3800
3800
3980
3bc0
77c0
7dc0
7bc0
7380
7380
e380
e780
ENDCHAR
STARTCHAR i
ENCODING 105
SWIDTH 343 0
DWIDTH 6 0
BBX 6 12 1 0
BITMAP
1c
3c
00
38
38
78
70
70
70
70
f0
e0
ENDCHAR
STARTCHAR j
ENCODING 106
SWIDTH 407 0
DWIDTH 7 0
BBX 10 15 -1 -3
BITMAP
01c0
03c0
0000
0380
0380
0780
0700
0700
0700
0f00
0f00
0e00
8e00
fc00
f800
ENDCHAR
STARTCHAR k
ENCODING 107
SWIDTH 666 0
DWIDTH 11 0
BBX 11 12 1 0
BITMAP
1c00
3c00
3800
38e0
39c0
7b80
7700
7f00
7700
7780
f380
e3c0
ENDCHAR
STARTCHAR l
ENCODING 108
SWIDTH 343 0
DWIDTH 6 0
BBX 6 12 1 0
BITMAP
1c
3c
38
38
38
78
78
70
70
70
f0
e0
ENDCHAR
STARTCHAR m
ENCODING 109
SWIDTH 991 0
DWIDTH 17 0
BBX 16 9 1 0
BITMAP
39ce
3bdf
77df
7de7
79ee
73ce
738e
e38e
e39e
ENDCHAR
STARTCHAR n
ENCODING 110
SWIDTH 675 0
DWIDTH 11 0
BBX 10 9 1 0
BITMAP
3980
7bc0
77c0
7fc0
7bc0
7380
f380
e380
e780
ENDCHAR
STARTCHAR o
ENCODING 111
SWIDTH 663 0
DWIDTH 11 0
BBX 10 9 1 0
BITMAP
0f80
3fc0
79c0
71c0
e1c0
e1c0
f380
ff00
3c00
ENDCHAR
STARTCHAR p
ENCODING 112
SWIDTH 681 0
DWIDTH 12 0
BBX 11 12 1 -3
BITMAP
3dc0
3be0
3ee0
3ce0
79e0
79c0
7380
7f00
7e00
f000
f000
e000
ENDCHAR
STARTCHAR q
ENCODING 113
SWIDTH 681 0
DWIDTH 12 0
BBX 11 12 1 -3
BITMAP
0fe0
1fe0
39c0
71c0
73c0
e5c0
ffc0
fb80
7380
0380
0780
0780
ENDCHAR
STARTCHAR r
ENCODING 114
SWIDTH 542 0
DWIDTH 9 0
BBX 9 9 1 0
BITMAP
3980
7b00
7700
7c00
7800
7000
f000
e000
e000
ENDCHAR
STARTCHAR s
ENCODING 115
SWIDTH 527 0
DWIDTH 9 0
BBX 9 9 1 0
BITMAP
1f80
3f80
3800
3c00
1e00
0f00
c700
ff00
fc00
ENDCHAR
STARTCHAR t
ENCODING 116
SWIDTH 437 0
DWIDTH 7 0
BBX 6 11 2 0
BITMAP
38
78
fc
fc
70
70
70
f0
f0
f8
78
ENDCHAR
STARTCHAR u
ENCODING 117
SWIDTH 675 0
DWIDTH 11 0
BBX 10 9 2 0
BITMAP
79c0
71c0
73c0
7380
f780
ef80
fb80
f780
6700
ENDCHAR
STARTCHAR v
ENCODING 118
SWIDTH 630 0
DWIDTH 11 0
BBX 10 9 2 0
BITMAP
e1c0
e180
f380
7300
7600
7600
7c00
7c00
3800
ENDCHAR
STARTCHAR w
ENCODING 119
SWIDTH 878 0
DWIDTH 15 0
BBX 14 9 2 0
BITMAP
e39c
e798
e7b8
efb0
eff0
fbe0
fbe0
f3c0
f3c0
ENDCHAR
STARTCHAR x
ENCODING 120
SWIDTH 563 0
DWIDTH 10 0
BBX 11 9 0 0
BITMAP
3ce0
1dc0
1f80
0f00
0e00
1f00
3f00
7780
e380
ENDCHAR
STARTCHAR y
ENCODING 121
SWIDTH 633 0
DWIDTH 11 0
BBX 12 12 1 -3
BITMAP
7870
38e0
38c0
39c0
3f80
3f00
1e00
1e00
1c00
3800
7800
f000
ENDCHAR
STARTCHAR z
ENCODING 122
SWIDTH 630 0
DWIDTH 11 0
BBX 10 9 1 0
BITMAP
3fc0
3fc0
0780
0f00
1e00
3c00
7800
ff80
ff80
ENDCHAR
STARTCHAR braceleft
ENCODING 123
SWIDTH 386 0
DWIDTH 7 0
BBX 7 15 1 -3
BITMAP
0e
1e
3c
3c
1c
18
78
e0
70
70
70
f0
f0
f0
70
ENDCHAR
STARTCHAR bar
ENCODING 124
SWIDTH 259 0
DWIDTH 4 0
BBX 5 15 1 -3
BITMAP
18
18
10
30
30
30
30
20
60
60
60
60
40
c0
c0
ENDCHAR
STARTCHAR braceright
ENCODING 125
SWIDTH 386 0
DWIDTH 7 0
BBX 7 15 0 -3
BITMAP
1c
1e
1e
1e
3c
1c
1c
0e
3c
30
70
78
78
f0
e0
ENDCHAR
STARTCHAR asciitilde
ENCODING 126
SWIDTH 687 0
DWIDTH 12 0
BBX 10 4 2 3
BITMAP
78c0
7cc0
cf80
c780
ENDCHAR
STARTCHAR nobreakspace
ENCODING 160
SWIDTH 343 0
DWIDTH 6 0
BBX 1 1 0 0
BITMAP
00
ENDCHAR
STARTCHAR Aogonek
ENCODING 161
SWIDTH 771 0
DWIDTH 13 0
BBX 12 14 1 -2
BITMAP
03c0
03c0
07c0
07c0
0de0
0ce0
18e0
3fe0
3fe0
70f0
6070
e070
0c00
0e00
ENDCHAR
STARTCHAR breve
ENCODING 162
SWIDTH 663 0
DWIDTH 11 0
BBX 6 2 5 10
BITMAP
dc
78
ENDCHAR
STARTCHAR Lstroke
ENCODING 163
SWIDTH 623 0
DWIDTH 11 0
BBX 10 12 1 0
BITMAP
1e00
1c00
1c00
1f00
3e00
3c00
7800
f800
b800
7800
7fc0
7fc0
ENDCHAR
STARTCHAR currency
ENCODING 164
SWIDTH 687 0
DWIDTH 12 0
BBX 13 12 1 0
BITMAP
1010
3038
1b70
1fe0
1dc0
18c0
18c0
1dc0
3fc0
7fc0
e060
4040
ENDCHAR
STARTCHAR Lcaron
ENCODING 165
SWIDTH 780 0
DWIDTH 13 0
BBX 11 13 2 0
BITMAP
00e0
3ce0
39c0
38c0
3980
7800
7000
7000
7000
7000
f000
ff80
ff80
ENDCHAR
STARTCHAR Sacute
ENCODING 166
SWIDTH 639 0
DWIDTH 11 0
BBX 10 15 1 0
BITMAP
01c0
0700
0000
0fc0
3fc0
3840
3800
3c00
3e00
0f80
0780
0380
c780
ff00
fc00
ENDCHAR
STARTCHAR section
ENCODING 167
SWIDTH 687 0
DWIDTH 12 0
BBX 10 15 2 -3
BITMAP
0fc0
1fc0
3840
3c00
3e00
3f80
3780
7180
7980
3f00
1f00
0700
c700
ff00
fc00
ENDCHAR
STARTCHAR diaeresis
ENCODING 168
SWIDTH 663 0
DWIDTH 11 0
BBX 6 2 5 10
BITMAP
cc
cc
ENDCHAR
STARTCHAR Scaron
ENCODING 169
SWIDTH 639 0
DWIDTH 11 0
BBX 10 15 1 0
BITMAP
0dc0
0700
0000
0fc0
3fc0
3840
3800
3c00
3e00
0f80
0780
0380
c780
ff00
fc00
ENDCHAR
STARTCHAR Scedilla
ENCODING 170
SWIDTH 639 0
DWIDTH 11 0
BBX 10 15 1 -3
BITMAP
0fc0
3fc0
3840
3800
3c00
3e00
0f80
0780
0380
c780
ff00
fc00
0c00
0c00
1c00
ENDCHAR
STARTCHAR Tcaron
ENCODING 171
SWIDTH 747 0
DWIDTH 13 0
BBX 13 15 2 0
BITMAP
0dc0
0700
0000
fff8
fff8
0700
0f00
0e00
0e00
0e00
1e00
1e00
1c00
1c00
1c00
ENDCHAR
STARTCHAR Zacute
ENCODING 172
SWIDTH 687 0
DWIDTH 12 0
BBX 12 15 1 0
BITMAP
00e0
0380
0000
1ff0
3ff0
01e0
03c0
0780
0f80
0f00
1e00
3c00
7800
ffc0
ffc0
ENDCHAR
STARTCHAR hyphen
ENCODING 173
SWIDTH 289 0
DWIDTH 5 0
BBX 4 2 2 4
BITMAP
f0
f0
ENDCHAR
STARTCHAR Zcaron
ENCODING 174
SWIDTH 687 0
DWIDTH 12 0
BBX 12 15 1 0
BITMAP
06e0
0380
0000
1ff0
3ff0
01e0
03c0
0780
0f80
0f00
1e00
3c00
7800
ffc0
ffc0
ENDCHAR
STARTCHAR Zabovedot
ENCODING 175
SWIDTH 687 0
DWIDTH 12 0
BBX 12 15 1 0
BITMAP
0380
0380
0000
1ff0
3ff0
01e0
03c0
0780
0f80
0f00
1e00
3c00
7800
ffc0
ffc0
ENDCHAR
STARTCHAR degree
ENCODING 176
SWIDTH 241 0
DWIDTH 4 0
BBX 3 3 3 9
BITMAP
e0
a0
e0
ENDCHAR
STARTCHAR aogonek
ENCODING 177
SWIDTH 681 0
DWIDTH 12 0
BBX 11 11 1 -2
BITMAP
0fe0
1fe0
39c0
71c0
73c0
e7c0
efc0
fb80
7380
0c00
0e00
ENDCHAR
STARTCHAR ogonek
ENCODING 178
SWIDTH 663 0
DWIDTH 11 0
BBX 3 2 4 -3
BITMAP
c0
e0
ENDCHAR
STARTCHAR lstroke
ENCODING 179
SWIDTH 343 0
DWIDTH 6 0
BBX 8 12 0 0
BITMAP
0e
1e
1d
1f
1f
3c
f8
f8
38
78
78
70
ENDCHAR
STARTCHAR acute
ENCODING 180
SWIDTH 663 0
DWIDTH 11 0
BBX 5 2 6 10
BITMAP
38
e0
ENDCHAR
STARTCHAR lcaron
ENCODING 181
SWIDTH 660 0
DWIDTH 11 0
BBX 11 13 1 0
BITMAP
00e0
1ce0
3dc0
38c0
3980
3800
7800
7800
7000
7000
7000
f000
e000
ENDCHAR
STARTCHAR sacute
ENCODING 182
SWIDTH 527 0
DWIDTH 9 0
BBX 9 12 1 0
BITMAP
0380
0e00
0000
1f80
3f80
3800
3c00
1e00
0f00
c700
ff00
fc00
ENDCHAR
STARTCHAR caron
ENCODING 183
SWIDTH 663 0
DWIDTH 11 0
BBX 6 2 5 10
BITMAP
dc
70
ENDCHAR
STARTCHAR cedilla
ENCODING 184
SWIDTH 663 0
DWIDTH 11 0
BBX 3 3 4 -3
BITMAP
60
60
e0
ENDCHAR
STARTCHAR scaron
ENCODING 185
SWIDTH 527 0
DWIDTH 9 0
BBX 9 12 1 0
BITMAP
1b80
0e00
0000
1f80
3f80
3800
3c00
1e00
0f00
c700
ff00
fc00
ENDCHAR
STARTCHAR scedilla
ENCODING 186
SWIDTH 527 0
DWIDTH 9 0
BBX 9 12 1 -3
BITMAP
1f80
3f80
3800
3c00
1e00
0f00
c700
ff00
fc00
0c00
0c00
1c00
ENDCHAR
STARTCHAR tcaron
ENCODING 187
SWIDTH 660 0
DWIDTH 11 0
BBX 10 15 2 0
BITMAP
01c0
01c0
0380
0180
3b00
7800
fc00
fc00
7000
7000
7000
f000
f000
f800
7800
ENDCHAR
STARTCHAR zacute
ENCODING 188
SWIDTH 630 0
DWIDTH 11 0
BBX 10 12 1 0
BITMAP
0380
0e00
0000
3fc0
3fc0
0780
0f00
1e00
3c00
7800
ff80
ff80
ENDCHAR
STARTCHAR doubleacute
ENCODING 189
SWIDTH 663 0
DWIDTH 11 0
BBX 7 2 6 10
BITMAP
36
d8
ENDCHAR
STARTCHAR zcaron
ENCODING 190
SWIDTH 630 0
DWIDTH 11 0
BBX 10 12 1 0
BITMAP
1b80
0e00
0000
3fc0
3fc0
0780
0f00
1e00
3c00
7800
ff80
ff80
ENDCHAR
STARTCHAR zabovedot
ENCODING 191
SWIDTH 630 0
DWIDTH 11 0
BBX 10 12 1 0
BITMAP
0e00
0e00
0000
3fc0
3fc0
0780
0f00
1e00
3c00
7800
ff80
ff80
ENDCHAR
STARTCHAR Racute
ENCODING 192
SWIDTH 708 0
DWIDTH 12 0
BBX 11 15 1 0
BITMAP
01c0
0700
0000
3fc0
3fe0
38e0
38e0
39c0
7f80
7f00
7700
7380
7380
e3c0
e1c0
ENDCHAR
STARTCHAR Aacute
ENCODING 193
SWIDTH 771 0
DWIDTH 13 0
BBX 12 15 1 0
BITMAP
0070
01c0
0000
03c0
03c0
07c0
07c0
0de0
0ce0
18e0
3fe0
3fe0
70f0
6070
e070
ENDCHAR
STARTCHAR Acircumflex
ENCODING 194
SWIDTH 771 0
DWIDTH 13 0
BBX 12 15 1 0
BITMAP
00e0
03b0
0000
03c0
03c0
07c0
07c0
0de0
0ce0
18e0
3fe0
3fe0
70f0
6070
e070
ENDCHAR
STARTCHAR Abreve
ENCODING 195
SWIDTH 771 0
DWIDTH 13 0
BBX 12 15 1 0
BITMAP
0370
01e0
0000
03c0
03c0
07c0
07c0
0de0
0ce0
18e0
3fe0
3fe0
70f0
6070
e070
ENDCHAR
STARTCHAR Adiaeresis
ENCODING 196
SWIDTH 771 0
DWIDTH 13 0
BBX 12 15 1 0
BITMAP
0330
0330
0000
03c0
03c0
07c0
07c0
0de0
0ce0
18e0
3fe0
3fe0
70f0
6070
e070
ENDCHAR
STARTCHAR Lacute
ENCODING 197
SWIDTH 623 0
DWIDTH 11 0
BBX 9 15 2 0
BITMAP
0700
1c00
0000
3c00
3800
3800
3800
7800
7000
7000
7000
7000
f000
ff80
ff80
ENDCHAR
STARTCHAR Cacute
ENCODING 198
SWIDTH 737 0
DWIDTH 13 0
BBX 12 15 2 0
BITMAP
00e0
0380
0000
07f0
1ff0
3c10
7800
7000
f000
f000
f000
f000
f840
7fc0
3f80
ENDCHAR
STARTCHAR Ccedilla
ENCODING 199
SWIDTH 737 0
DWIDTH 13 0
BBX 12 15 2 -3
BITMAP
07f0
1ff0
3c10
7800
7000
f000
f000
f000
f000
f840
7fc0
3f80
0800
0c00
1c00
ENDCHAR
STARTCHAR Ccaron
ENCODING 200
SWIDTH 737 0
DWIDTH 13 0
BBX 12 15 2 0
BITMAP
06e0
0380
0000
07f0
1ff0
3c10
7800
7000
f000
f000
f000
f000
f840
7fc0
3f80
ENDCHAR
STARTCHAR Eacute
ENCODING 201
SWIDTH 642 0
DWIDTH 11 0
BBX 11 15 1 0
BITMAP
01c0
0700
0000
3fe0
3fe0
3800
3800
3800
7f80
7f80
7000
7000
7000
ff80
ff80
ENDCHAR
STARTCHAR Eogonek
ENCODING 202
SWIDTH 642 0
DWIDTH 11 0
BBX 11 14 1 -2
BITMAP
3fe0
3fe0
3800
3800
3800
7f80
7f80
7000
7000
7000
ff80
ff80
0c00
0e00
ENDCHAR
STARTCHAR Ediaeresis
ENCODING 203
SWIDTH 642 0
DWIDTH 11 0
BBX 11 15 1 0
BITMAP
0cc0
0cc0
0000
3fe0
3fe0
3800
3800
3800
7f80
7f80
7000
7000
7000
ff80
ff80
ENDCHAR
STARTCHAR Ecaron
ENCODING 204
SWIDTH 642 0
DWIDTH 11 0
BBX 11 15 1 0
BITMAP
0dc0
0700
0000
3fe0
3fe0
3800
3800
3800
7f80
7f80
7000
7000
7000
ff80
ff80
ENDCHAR
STARTCHAR Iacute
ENCODING 205
SWIDTH 361 0
DWIDTH 6 0
BBX 7 15 1 0
BITMAP
0e
38
00
3c
3c
38
38
38
78
78
70
70
70
f0
f0
ENDCHAR
STARTCHAR Icircumflex
ENCODING 206
SWIDTH 361 0
DWIDTH 6 0
BBX 7 15 1 0
BITMAP
1c
76
00
3c
3c
38
38
38
78
78
70
70
70
f0
f0
ENDCHAR
STARTCHAR Dcaron
ENCODING 207
SWIDTH 822 0
DWIDTH 14 0
BBX 13 15 2 0
BITMAP
06e0
0380
0000
3fe0
3ff0
3878
3878
7878
7078
7078
7070
70f0
f1e0
ffc0
ff00
ENDCHAR
STARTCHAR Dstroke
ENCODING 208
SWIDTH 822 0
DWIDTH 14 0
BBX 14 12 1 0
BITMAP
1ff0
1ff8
3c3c
3c3c
383c
ff3c
ff3c
3838
7878
70f0
7fe0
7f80
ENDCHAR
STARTCHAR Nacute
ENCODING 209
SWIDTH 789 0
DWIDTH 13 0
BBX 13 15 1 0
BITMAP
00e0
0380
0000
3838
3c38
3c30
3e30
3e30
7770
7770
63e0
63e0
61e0
e1e0
e0e0
ENDCHAR
STARTCHAR Ncaron
ENCODING 210
SWIDTH 789 0
DWIDTH 13 0
BBX 13 15 1 0
BITMAP
06e0
0380
0000
3838
3c38
3c30
3e30
3e30
7770
7770
63e0
63e0
61e0
e1e0
e0e0
ENDCHAR
STARTCHAR Oacute
ENCODING 211
SWIDTH 855 0
DWIDTH 15 0
BBX 14 15 2 0
BITMAP
00e0
0380
0000
07e0
1ff8
3c78
783c
703c
f03c
f038
f078
f070
f0e0
7fc0
1f00
ENDCHAR
STARTCHAR Ocircumflex
ENCODING 212
SWIDTH 855 0
DWIDTH 15 0
BBX 14 15 2 0
BITMAP
01c0
0760
0000
07e0
1ff8
3c78
783c
703c
f03c
f038
f078
f070
f0e0
7fc0
1f00
ENDCHAR
STARTCHAR Odoubleacute
ENCODING 213
SWIDTH 855 0
DWIDTH 15 0
BBX 14 15 2 0
BITMAP
00d8
0360
0000
07e0
1ff8
3c78
783c
703c
f03c
f038
f078
f070
f0e0
7fc0
1f00
ENDCHAR
STARTCHAR Odiaeresis
ENCODING 214
SWIDTH 855 0
DWIDTH 15 0
BBX 14 15 2 0
BITMAP
0660
0660
0000
07e0
1ff8
3c78
783c
703c
f03c
f038
f078
f070
f0e0
7fc0
1f00
ENDCHAR
STARTCHAR multiply
ENCODING 215
SWIDTH 687 0
DWIDTH 12 0
BBX 11 10 1 0
BITMAP
6040
30e0
39c0
1b80
0e00
0e00
3b00
7380
e180
40c0
ENDCHAR
STARTCHAR Rcaron
ENCODING 216
SWIDTH 708 0
DWIDTH 12 0
BBX 11 15 1 0
BITMAP
0dc0
0700
0000
3fc0
3fe0
38e0
38e0
39c0
7f80
7f00
7700
7380
7380
e3c0
e1c0
ENDCHAR
STARTCHAR Uring
ENCODING 217
SWIDTH 759 0
DWIDTH 13 0
BBX 12 15 2 0
BITMAP
0700
0700
0000
3870
7870
7070
70e0
70e0
f0e0
f0e0
e0c0
e1c0
f1c0
7f80
3f00
ENDCHAR
STARTCHAR Uacute
ENCODING 218
SWIDTH 759 0
DWIDTH 13 0
BBX 12 15 2 0
BITMAP
01c0
0700
0000
3870
7870
7070
70e0
70e0
f0e0
f0e0
e0c0
e1c0
f1c0
7f80
3f00
ENDCHAR
STARTCHAR Udoubleacute
ENCODING 219
SWIDTH 759 0
DWIDTH 13 0
BBX 12 15 2 0
BITMAP
0360
0d80
0000
3870
7870
7070
70e0
70e0
f0e0
f0e0
e0c0
e1c0
f1c0
7f80
3f00
ENDCHAR
STARTCHAR Udiaeresis
ENCODING 220
SWIDTH 759 0
DWIDTH 13 0
BBX 12 15 2 0
BITMAP
0cc0
0cc0
0000
3870
7870
7070
70e0
70e0
f0e0
f0e0
e0c0
e1c0
f1c0
7f80
3f00
ENDCHAR
STARTCHAR Yacute
ENCODING 221
SWIDTH 681 0
DWIDTH 12 0
BBX 11 15 3 0
BITMAP
0380
0e00
0000
e0e0
71c0
7380
7b00
3e00
3e00
3c00
3c00
3800
3800
3800
7800
ENDCHAR
STARTCHAR Tcedilla
ENCODING 222
SWIDTH 747 0
DWIDTH 13 0
BBX 13 15 2 -3
BITMAP
fff8
fff8
0700
0f00
0e00
0e00
0e00
1e00
1e00
1c00
1c00
1c00
0300
0300
0700
ENDCHAR
STARTCHAR ssharp
ENCODING 223
SWIDTH 708 0
DWIDTH 12 0
BBX 11 15 1 -3
BITMAP
07c0
0fc0
1cc0
1dc0
3980
3b80
3b80
39c0
78e0
70e0
77e0
77c0
7000
e000
e000
ENDCHAR
STARTCHAR racute
ENCODING 224
SWIDTH 542 0
DWIDTH 9 0
BBX 9 12 1 0
BITMAP
0700
1c00
0000
3980
7b00
7700
7c00
7800
7000
f000
e000
e000
ENDCHAR
STARTCHAR aacute
ENCODING 225
SWIDTH 681 0
DWIDTH 12 0
BBX 11 12 1 0
BITMAP
01c0
0700
0000
0fe0
1fe0
39c0
71c0
73c0
e7c0
efc0
fb80
7380
ENDCHAR
STARTCHAR acircumflex
ENCODING 226
SWIDTH 681 0
DWIDTH 12 0
BBX 11 12 1 0
BITMAP
0380
0ec0
0000
0fe0
1fe0
39c0
71c0
73c0
e7c0
efc0
fb80
7380
ENDCHAR
STARTCHAR abreve
ENCODING 227
SWIDTH 681 0
DWIDTH 12 0
BBX 11 12 1 0
BITMAP
0dc0
0780
0000
0fe0
1fe0
39c0
71c0
73c0
e7c0
efc0
fb80
7380
ENDCHAR
STARTCHAR adiaeresis
ENCODING 228
SWIDTH 681 0
DWIDTH 12 0
BBX 11 12 1 0
BITMAP
0cc0
0cc0
0000
0fe0
1fe0
39c0
71c0
73c0
e7c0
efc0
fb80
7380
ENDCHAR
STARTCHAR lacute
ENCODING 229
SWIDTH 343 0
DWIDTH 6 0
BBX 8 15 1 0
BITMAP
07
1c
00
1c
3c
38
38
38
78
78
70
70
70
f0
e0
ENDCHAR
STARTCHAR cacute
ENCODING 230
SWIDTH 548 0
DWIDTH 9 0
BBX 9 12 1 0
BITMAP
0380
0e00
0000
0f80
3f80
7880
7000
f000
f000
f100
ff00
7e00
ENDCHAR
STARTCHAR ccedilla
ENCODING 231
SWIDTH 548 0
DWIDTH 9 0
BBX 9 12 1 -3
BITMAP
0f80
3f80
7880
7000
f000
f000
f100
ff00
7e00
1000
1800
3800
ENDCHAR
STARTCHAR ccaron
ENCODING 232
SWIDTH 548 0
DWIDTH 9 0
BBX 9 12 1 0
BITMAP
1b80
0e00
0000
0f80
3f80
7880
7000
f000
f000
f100
ff00
7e00
ENDCHAR
STARTCHAR eacute
ENCODING 233
SWIDTH 612 0
DWIDTH 10 0
BBX 10 12 1 0
BITMAP
01c0
0700
0000
0f00
3f80
7380
7780
ff00
fc00
e080
ff80
3e00
ENDCHAR
STARTCHAR eogonek
ENCODING 234
SWIDTH 612 0
DWIDTH 10 0
BBX 9 11 1 -2
BITMAP
0f00
3f80
7380
7780
ff00
fc00
e080
ff80
3e00
1800
1c00
ENDCHAR
STARTCHAR ediaeresis
ENCODING 235
SWIDTH 612 0
DWIDTH 10 0
BBX 10 12 1 0
BITMAP
0cc0
0cc0
0000
0f00
3f80
7380
7780
ff00
fc00
e080
ff80
3e00
ENDCHAR
STARTCHAR ecaron
ENCODING 236
SWIDTH 612 0
DWIDTH 10 0
BBX 9 12 1 0
BITMAP
1b80
0e00
0000
0f00
3f80
7380
7780
ff00
fc00
e080
ff80
3e00
ENDCHAR
STARTCHAR iacute
ENCODING 237
SWIDTH 343 0
DWIDTH 6 0
BBX 7 12 1 0
BITMAP
0e
38
00
38
38
70
70
70
70
70
e0
e0
ENDCHAR
STARTCHAR icircumflex
ENCODING 238
SWIDTH 343 0
DWIDTH 6 0
BBX 7 12 1 0
BITMAP
1c
76
00
38
38
70
70
70
70
70
e0
e0
ENDCHAR
STARTCHAR dcaron
ENCODING 239
SWIDTH 1020 0
DWIDTH 17 0
BBX 17 13 1 0
BITMAP
000380
00f380
00f700
00e300
0fe600
1fe000
39e000
71e000
73c000
e7c000
edc000
fbc000
738000
ENDCHAR
STARTCHAR dstroke
ENCODING 240
SWIDTH 960 0
DWIDTH 16 0
BBX 16 12 1 0
BITMAP
00f0
0070
ffff
0fe0
1fe0
39e0
71e0
73c0
e7c0
edc0
fbc0
7380
ENDCHAR
STARTCHAR nacute
ENCODING 241
SWIDTH 675 0
DWIDTH 11 0
BBX 10 12 1 0
BITMAP
0380
0e00
0000
3980
7bc0
77c0
7fc0
7bc0
7380
f380
e380
e780
ENDCHAR
STARTCHAR ncaron
ENCODING 242
SWIDTH 675 0
DWIDTH 11 0
BBX 10 12 1 0
BITMAP
1b80
0e00
0000
3980
7bc0
77c0
7fc0
7bc0
7380
f380
e380
e780
ENDCHAR
STARTCHAR oacute
ENCODING 243
SWIDTH 663 0
DWIDTH 11 0
BBX 10 12 1 0
BITMAP
01c0
0700
0000
0f80
3fc0
79c0
71c0
e1c0
e1c0
f380
ff00
3c00
ENDCHAR
STARTCHAR ocircumflex
ENCODING 244
SWIDTH 663 0
DWIDTH 11 0
BBX 10 12 1 0
BITMAP
0380
0ec0
0000
0f80
3fc0
79c0
71c0
e1c0
e1c0
f380
ff00
3c00
ENDCHAR
STARTCHAR odoubleacute
ENCODING 245
SWIDTH 663 0
DWIDTH 11 0
BBX 10 12 1 0
BITMAP
06c0
1b00
0000
0f80
3fc0
79c0
71c0
e1c0
e1c0
f380
ff00
3c00
ENDCHAR
STARTCHAR odiaeresis
ENCODING 246
SWIDTH 663 0
DWIDTH 11 0
BBX 10 12 1 0
BITMAP
0cc0
0cc0
0000
0f80
3fc0
79c0
71c0
e1c0
e1c0
f380
ff00
3c00
ENDCHAR
STARTCHAR division
ENCODING 247
SWIDTH 687 0
DWIDTH 12 0
BBX 10 10 2 0
BITMAP
0600
0e00
0000
0000
ffc0
ffc0
0000
0000
1c00
1800
ENDCHAR
STARTCHAR rcaron
ENCODING 248
SWIDTH 542 0
DWIDTH 9 0
BBX 9 12 1 0
BITMAP
3700
1c00
0000
3980
7b00
7700
7c00
7800
7000
f000
e000
e000
ENDCHAR
STARTCHAR uring
ENCODING 249
SWIDTH 675 0
DWIDTH 11 0
BBX 10 12 2 0
BITMAP
0e00
0e00
0000
79c0
71c0
73c0
7380
f780
ef80
fb80
f780
6700
ENDCHAR
STARTCHAR uacute
ENCODING 250
SWIDTH 675 0
DWIDTH 11 0
BBX 10 12 2 0
BITMAP
01c0
0700
0000
79c0
71c0
73c0
7380
f780
ef80
fb80
f780
6700
ENDCHAR
STARTCHAR udoubleacute
ENCODING 251
SWIDTH 675 0
DWIDTH 11 0
BBX 10 12 2 0
BITMAP
06c0
1b00
0000
79c0
71c0
73c0
7380
f780
ef80
fb80
f780
6700
ENDCHAR
STARTCHAR udiaeresis
ENCODING 252
SWIDTH 675 0
DWIDTH 11 0
BBX 10 12 2 0
BITMAP
0cc0
0cc0
0000
79c0
71c0
73c0
7380
f780
ef80
fb80
f780
6700
ENDCHAR
STARTCHAR yacute
ENCODING 253
SWIDTH 633 0
DWIDTH 11 0
BBX 12 15 1 -3
BITMAP
01c0
0700
0000
7870
38e0
38c0
39c0
3f80
3f00
1e00
1e00
1c00
3800
7800
f000
ENDCHAR
STARTCHAR tcedilla
ENCODING 254
SWIDTH 437 0
DWIDTH 7 0
BBX 6 14 2 -3
BITMAP
38
78
fc
fc
70
70
70
f0
f0
f8
78
30
30
70
ENDCHAR
STARTCHAR abovedot
ENCODING 255
SWIDTH 663 0
DWIDTH 11 0
BBX 3 2 7 10
BITMAP
e0
e0
ENDCHAR
ENDFONT
